<svg width="120" height="40" viewBox="0 0 120 40" fill="none" xmlns="http://www.w3.org/2000/svg">
<rect x="0.5" width="119" height="40" rx="8" fill="#2D3136"/>
<path fill-rule="evenodd" clip-rule="evenodd" d="M20.1464 13.6464C20.3417 13.4512 20.6583 13.4512 20.8536 13.6464L24.1869 16.9798C24.3821 17.175 24.3821 17.4916 24.1869 17.6869C23.9916 17.8821 23.675 17.8821 23.4798 17.6869L21 15.2071V22C21 22.2761 20.7761 22.5 20.5 22.5C20.2239 22.5 20 22.2761 20 22V15.2071L17.5202 17.6869C17.325 17.8821 17.0084 17.8821 16.8131 17.6869C16.6179 17.4916 16.6179 17.175 16.8131 16.9798L20.1464 13.6464ZM14.5 21.5C14.7761 21.5 15 21.7239 15 22V24.6667C15 24.8877 15.0878 25.0996 15.2441 25.2559C15.4004 25.4122 15.6123 25.5 15.8333 25.5H25.1667C25.3877 25.5 25.5996 25.4122 25.7559 25.2559C25.9122 25.0996 26 24.8877 26 24.6667V22C26 21.7239 26.2239 21.5 26.5 21.5C26.7761 21.5 27 21.7239 27 22V24.6667C27 25.1529 26.8068 25.6192 26.463 25.963C26.1192 26.3068 25.6529 26.5 25.1667 26.5H15.8333C15.3471 26.5 14.8808 26.3068 14.537 25.963C14.1932 25.6192 14 25.1529 14 24.6667V22C14 21.7239 14.2239 21.5 14.5 21.5Z" fill="#59B2FF"/>
<path d="M43.582 22.7793C43.582 23.3717 43.4362 23.8822 43.1445 24.3105C42.8574 24.7389 42.4427 25.0671 41.9004 25.2949C41.3626 25.5228 40.7201 25.6367 39.9727 25.6367C39.6081 25.6367 39.2594 25.6162 38.9268 25.5752C38.5941 25.5342 38.2796 25.4749 37.9834 25.3975C37.6917 25.3154 37.4251 25.2174 37.1836 25.1035V23.5586C37.5892 23.7363 38.0426 23.8981 38.5439 24.0439C39.0452 24.1852 39.5557 24.2559 40.0752 24.2559C40.499 24.2559 40.8499 24.2012 41.1279 24.0918C41.4105 23.9779 41.6201 23.8184 41.7568 23.6133C41.8936 23.4036 41.9619 23.1598 41.9619 22.8818C41.9619 22.5856 41.8822 22.335 41.7227 22.1299C41.5632 21.9248 41.3216 21.738 40.998 21.5693C40.679 21.3962 40.278 21.2116 39.7949 21.0156C39.4668 20.8835 39.1523 20.7331 38.8516 20.5645C38.5553 20.3958 38.291 20.1976 38.0586 19.9697C37.8262 19.7419 37.6416 19.473 37.5049 19.1631C37.3727 18.8486 37.3066 18.4795 37.3066 18.0557C37.3066 17.4906 37.4411 17.0075 37.71 16.6064C37.9834 16.2054 38.3662 15.8978 38.8584 15.6836C39.3551 15.4694 39.9339 15.3623 40.5947 15.3623C41.1188 15.3623 41.611 15.417 42.0713 15.5264C42.5361 15.6357 42.9919 15.7907 43.4385 15.9912L42.9189 17.3105C42.5088 17.1419 42.11 17.0075 41.7227 16.9072C41.3398 16.807 40.9479 16.7568 40.5469 16.7568C40.2005 16.7568 39.9066 16.8092 39.665 16.9141C39.4235 17.0189 39.2389 17.167 39.1113 17.3584C38.9883 17.5452 38.9268 17.7686 38.9268 18.0283C38.9268 18.32 38.9974 18.5661 39.1387 18.7666C39.2845 18.9626 39.5078 19.1426 39.8086 19.3066C40.1139 19.4707 40.5059 19.653 40.9844 19.8535C41.5358 20.0814 42.0029 20.3206 42.3857 20.5713C42.7731 20.8219 43.0693 21.1227 43.2744 21.4736C43.4795 21.82 43.582 22.2552 43.582 22.7793ZM48.3604 17.7891C49.0348 17.7891 49.6136 17.9281 50.0967 18.2061C50.5798 18.484 50.9512 18.8783 51.2109 19.3887C51.4707 19.8991 51.6006 20.5098 51.6006 21.2207V22.082H46.5488C46.5671 22.8158 46.763 23.3809 47.1367 23.7773C47.515 24.1738 48.0436 24.3721 48.7227 24.3721C49.2057 24.3721 49.6387 24.3265 50.0215 24.2354C50.4089 24.1396 50.8076 24.0007 51.2178 23.8184V25.124C50.8395 25.3018 50.4544 25.4316 50.0625 25.5137C49.6706 25.5957 49.2012 25.6367 48.6543 25.6367C47.9115 25.6367 47.2575 25.4932 46.6924 25.2061C46.1318 24.9144 45.6921 24.4814 45.373 23.9072C45.0586 23.333 44.9014 22.6198 44.9014 21.7676C44.9014 20.9199 45.0449 20.1999 45.332 19.6074C45.6191 19.015 46.0225 18.5638 46.542 18.2539C47.0615 17.944 47.6676 17.7891 48.3604 17.7891ZM48.3604 18.999C47.8545 18.999 47.4443 19.1631 47.1299 19.4912C46.82 19.8193 46.6377 20.3001 46.583 20.9336H50.0283C50.0238 20.5553 49.96 20.2204 49.8369 19.9287C49.7184 19.637 49.5361 19.4092 49.29 19.2451C49.0485 19.0811 48.7386 18.999 48.3604 18.999ZM55.0254 25.5H53.4121V14.8633H55.0254V25.5ZM60.3369 17.7891C61.0114 17.7891 61.5902 17.9281 62.0732 18.2061C62.5563 18.484 62.9277 18.8783 63.1875 19.3887C63.4473 19.8991 63.5771 20.5098 63.5771 21.2207V22.082H58.5254C58.5436 22.8158 58.7396 23.3809 59.1133 23.7773C59.4915 24.1738 60.0202 24.3721 60.6992 24.3721C61.1823 24.3721 61.6152 24.3265 61.998 24.2354C62.3854 24.1396 62.7842 24.0007 63.1943 23.8184V25.124C62.8161 25.3018 62.431 25.4316 62.0391 25.5137C61.6471 25.5957 61.1777 25.6367 60.6309 25.6367C59.888 25.6367 59.234 25.4932 58.6689 25.2061C58.1084 24.9144 57.6686 24.4814 57.3496 23.9072C57.0352 23.333 56.8779 22.6198 56.8779 21.7676C56.8779 20.9199 57.0215 20.1999 57.3086 19.6074C57.5957 19.015 57.999 18.5638 58.5186 18.2539C59.0381 17.944 59.6442 17.7891 60.3369 17.7891ZM60.3369 18.999C59.8311 18.999 59.4209 19.1631 59.1064 19.4912C58.7965 19.8193 58.6143 20.3001 58.5596 20.9336H62.0049C62.0003 20.5553 61.9365 20.2204 61.8135 19.9287C61.695 19.637 61.5127 19.4092 61.2666 19.2451C61.0251 19.0811 60.7152 18.999 60.3369 18.999ZM68.4375 25.6367C67.722 25.6367 67.1022 25.4977 66.5781 25.2197C66.054 24.9417 65.6507 24.5156 65.3682 23.9414C65.0856 23.3672 64.9443 22.638 64.9443 21.7539C64.9443 20.8333 65.0993 20.0814 65.4092 19.498C65.7191 18.9147 66.1475 18.484 66.6943 18.2061C67.2458 17.9281 67.877 17.7891 68.5879 17.7891C69.0391 17.7891 69.4469 17.8346 69.8115 17.9258C70.1807 18.0124 70.4928 18.1195 70.748 18.2471L70.2695 19.5322C69.9915 19.4183 69.7067 19.3226 69.415 19.2451C69.1234 19.1676 68.8431 19.1289 68.5742 19.1289C68.1322 19.1289 67.763 19.2269 67.4668 19.4229C67.1751 19.6188 66.9564 19.9105 66.8105 20.2979C66.6693 20.6852 66.5986 21.166 66.5986 21.7402C66.5986 22.2962 66.6715 22.7656 66.8174 23.1484C66.9632 23.5267 67.1797 23.8138 67.4668 24.0098C67.7539 24.2012 68.1071 24.2969 68.5264 24.2969C68.9411 24.2969 69.3125 24.2467 69.6406 24.1465C69.9688 24.0462 70.2786 23.9163 70.5703 23.7568V25.1514C70.2832 25.3154 69.9756 25.4362 69.6475 25.5137C69.3193 25.5957 68.916 25.6367 68.4375 25.6367ZM73.9541 17.9326V25.5H72.3477V17.9326H73.9541ZM73.1611 15.0342C73.4072 15.0342 73.6191 15.1003 73.7969 15.2324C73.9792 15.3646 74.0703 15.5924 74.0703 15.916C74.0703 16.235 73.9792 16.4629 73.7969 16.5996C73.6191 16.7318 73.4072 16.7979 73.1611 16.7979C72.9059 16.7979 72.6895 16.7318 72.5117 16.5996C72.3385 16.4629 72.252 16.235 72.252 15.916C72.252 15.5924 72.3385 15.3646 72.5117 15.2324C72.6895 15.1003 72.9059 15.0342 73.1611 15.0342ZM82.957 21.6992C82.957 22.3281 82.875 22.8864 82.7109 23.374C82.5469 23.8617 82.3076 24.2741 81.9932 24.6113C81.6787 24.944 81.3005 25.1992 80.8584 25.377C80.4163 25.5501 79.9173 25.6367 79.3613 25.6367C78.8418 25.6367 78.3656 25.5501 77.9326 25.377C77.4997 25.1992 77.1237 24.944 76.8047 24.6113C76.4902 24.2741 76.2464 23.8617 76.0732 23.374C75.9001 22.8864 75.8135 22.3281 75.8135 21.6992C75.8135 20.8652 75.957 20.1589 76.2441 19.5801C76.5358 18.9967 76.9505 18.5524 77.4883 18.2471C78.026 17.9417 78.6663 17.7891 79.4092 17.7891C80.1064 17.7891 80.7217 17.9417 81.2549 18.2471C81.7881 18.5524 82.2051 18.9967 82.5059 19.5801C82.8066 20.1634 82.957 20.8698 82.957 21.6992ZM77.4678 21.6992C77.4678 22.2507 77.5339 22.7223 77.666 23.1143C77.8027 23.5062 78.0124 23.807 78.2949 24.0166C78.5775 24.2217 78.9421 24.3242 79.3887 24.3242C79.8353 24.3242 80.1999 24.2217 80.4824 24.0166C80.765 23.807 80.9723 23.5062 81.1045 23.1143C81.2367 22.7223 81.3027 22.2507 81.3027 21.6992C81.3027 21.1478 81.2367 20.6807 81.1045 20.2979C80.9723 19.9105 80.765 19.6165 80.4824 19.416C80.1999 19.2109 79.833 19.1084 79.3818 19.1084C78.7165 19.1084 78.2311 19.3317 77.9258 19.7783C77.6204 20.2249 77.4678 20.8652 77.4678 21.6992ZM88.7471 17.7891C89.5993 17.7891 90.2624 18.0101 90.7363 18.4521C91.2148 18.8896 91.4541 19.5938 91.4541 20.5645V25.5H89.8477V20.8652C89.8477 20.2773 89.7269 19.8376 89.4854 19.5459C89.2438 19.2497 88.8701 19.1016 88.3643 19.1016C87.6305 19.1016 87.1201 19.3271 86.833 19.7783C86.5505 20.2295 86.4092 20.8835 86.4092 21.7402V25.5H84.8027V17.9326H86.0537L86.2793 18.958H86.3682C86.5322 18.6937 86.735 18.4772 86.9766 18.3086C87.2227 18.1354 87.4961 18.0055 87.7969 17.9189C88.1022 17.8324 88.4189 17.7891 88.7471 17.7891ZM96.6699 17.7891C97.627 17.7891 98.3493 18.001 98.8369 18.4248C99.3291 18.8486 99.5752 19.5094 99.5752 20.4072V25.5H98.4336L98.126 24.4268H98.0713C97.8571 24.7002 97.6361 24.9258 97.4082 25.1035C97.1803 25.2812 96.916 25.4134 96.6152 25.5C96.319 25.5911 95.9567 25.6367 95.5283 25.6367C95.0771 25.6367 94.6738 25.5547 94.3184 25.3906C93.9629 25.222 93.6826 24.9668 93.4775 24.625C93.2725 24.2832 93.1699 23.8503 93.1699 23.3262C93.1699 22.5469 93.4593 21.9613 94.0381 21.5693C94.6214 21.1774 95.501 20.9609 96.6768 20.9199L97.9893 20.8721V20.4756C97.9893 19.9515 97.8662 19.5778 97.6201 19.3545C97.3786 19.1312 97.0368 19.0195 96.5947 19.0195C96.2165 19.0195 95.8496 19.0742 95.4941 19.1836C95.1387 19.293 94.7923 19.4274 94.4551 19.5869L93.9355 18.4521C94.3047 18.2562 94.724 18.0967 95.1934 17.9736C95.6673 17.8506 96.1595 17.7891 96.6699 17.7891ZM97.9824 21.8838L97.0049 21.918C96.2028 21.9453 95.64 22.082 95.3164 22.3281C94.9928 22.5742 94.8311 22.9115 94.8311 23.3398C94.8311 23.7135 94.9427 23.987 95.166 24.1602C95.3893 24.3288 95.6833 24.4131 96.0479 24.4131C96.6038 24.4131 97.0641 24.2559 97.4287 23.9414C97.7979 23.6224 97.9824 23.1553 97.9824 22.54V21.8838ZM105.659 17.7891C105.787 17.7891 105.926 17.7959 106.076 17.8096C106.227 17.8232 106.356 17.8415 106.466 17.8643L106.315 19.3682C106.22 19.3408 106.101 19.3203 105.96 19.3066C105.823 19.293 105.7 19.2861 105.591 19.2861C105.304 19.2861 105.03 19.334 104.771 19.4297C104.511 19.5208 104.281 19.6621 104.08 19.8535C103.88 20.0404 103.722 20.2751 103.608 20.5576C103.494 20.8402 103.438 21.1683 103.438 21.542V25.5H101.824V17.9326H103.082L103.301 19.2656H103.376C103.526 18.9967 103.713 18.7507 103.937 18.5273C104.16 18.304 104.415 18.1263 104.702 17.9941C104.994 17.8574 105.313 17.7891 105.659 17.7891Z" fill="#F9F9F9"/>
</svg>
